<svg width="700" height="800" viewBox="0 0 700 800" fill="none" xmlns="http://www.w3.org/2000/svg">
<path d="M584.62 133.679C484.043 123.121 419.996 172.591 387.765 207.996C389.474 217.662 390.676 227.415 391.366 237.213C410.457 235.746 429.642 236.18 448.651 238.506C486.572 180.383 545.032 157.355 585.399 148.235C593.387 146.43 592.758 134.532 584.62 133.679Z" fill="#92EA7D"/>
<path d="M548.789 132.386C468.611 135.211 415.99 176.993 387.767 207.996C389.477 217.663 390.679 227.416 391.368 237.213C396.219 236.843 401.063 236.596 405.904 236.468C428.983 199.02 472.469 150.662 548.789 132.386Z" fill="#92EA7D"/>
<path d="M308.286 237.191C309.03 227.247 309.595 216.605 309.871 205.434C276.924 170.261 213.555 123.374 115.379 133.678C107.24 134.533 106.611 146.43 114.6 148.235C154.966 157.355 213.428 180.383 251.349 238.506C270.245 236.191 289.316 235.751 308.296 237.192L308.286 237.191Z" fill="#92EA7D"/>
<path d="M162.656 135.471C160.98 134.938 159.763 133.962 158.926 132.779C145.251 131.854 130.741 132.065 115.378 133.679C107.241 134.534 106.611 146.431 114.599 148.235C154.966 157.355 213.428 180.384 251.349 238.507C264.52 236.899 277.783 236.204 291.047 236.424C257.999 175.78 201.96 147.979 162.656 135.471Z" fill="#92EA7D"/>
<path d="M306.706 237.191C331.692 239.069 343.707 243.998 370.318 239.831C377.826 238.659 385.375 237.785 392.948 237.211C385.784 133.985 320.175 45.9007 280.855 1.81494C276.729 -2.8116 269.428 2.2165 272.116 7.83835C309.026 85.0583 311.38 174.8 306.706 237.191Z" fill="#92EA7D"/>
<path d="M338.008 240.787C341.463 187.536 339.877 116.611 318.916 49.5679C307.103 32.9445 294.397 17.0024 280.855 1.81494C276.729 -2.8116 269.428 2.2165 272.116 7.83835C309.026 85.0568 311.38 174.799 306.704 237.189C319.246 238.133 328.519 239.844 338.008 240.787Z" fill="#92EA7D"/>
<path d="M370.318 238.219C337.454 243.366 328.34 234.748 284.942 234.748C127.574 234.748 0 361.284 0 517.372C0 673.461 127.575 799.998 284.942 799.998C300.166 799.998 315.109 798.81 329.685 796.527C343.15 794.416 356.852 794.416 370.317 796.527C385.122 798.842 400.079 800.002 415.058 799.998C572.428 799.998 700 673.462 700 517.374C700 343.785 543.64 211.077 370.318 238.219Z" fill="url(#paint0_angular_0_413)"/>
<path d="M370.318 238.219C337.454 243.366 328.34 234.748 284.942 234.748C127.574 234.748 0 361.284 0 517.372C0 673.461 127.575 799.998 284.942 799.998C300.166 799.998 315.109 798.81 329.685 796.527C343.15 794.416 356.852 794.416 370.317 796.527C385.122 798.842 400.079 800.002 415.058 799.998C572.428 799.998 700 673.462 700 517.374C700 343.785 543.64 211.077 370.318 238.219Z" fill="url(#paint1_linear_0_413)"/>
<path d="M31.5854 517.375C31.5854 366.483 150.806 243.221 300.911 235.178C295.592 234.887 290.267 234.745 284.942 234.75C127.573 234.75 0.00122072 361.285 0.00122072 517.373C-0.000309896 673.465 127.573 800 284.94 800C290.245 800 295.514 799.847 300.747 799.563C150.719 791.439 31.5854 668.212 31.5854 517.375Z" fill="white" fill-opacity="0.53"/>
<defs>
<radialGradient id="paint0_angular_0_413" cx="0" cy="0" r="1" gradientUnits="userSpaceOnUse" gradientTransform="translate(350 517.342) rotate(90) scale(282.656 350)">
<stop stop-color="#6DD6C3"/>
<stop offset="1" stop-color="#BBEFFF"/>
</radialGradient>
<linearGradient id="paint1_linear_0_413" x1="63.6364" y1="795.782" x2="686.024" y2="304.864" gradientUnits="userSpaceOnUse">
<stop offset="0.255866" stop-color="white" stop-opacity="0"/>
<stop offset="1" stop-color="white"/>
</linearGradient>
</defs>
</svg>
