<svg width="700" height="800" viewBox="0 0 700 800" fill="none" xmlns="http://www.w3.org/2000/svg">
<path d="M584.62 133.679C484.043 123.121 419.996 172.591 387.765 207.996C389.474 217.662 390.676 227.415 391.366 237.213C410.457 235.746 429.642 236.18 448.651 238.506C486.572 180.383 545.032 157.355 585.399 148.235C593.387 146.43 592.758 134.532 584.62 133.679Z" fill="#92EA7D"/>
<path d="M548.789 132.386C468.611 135.211 415.99 176.993 387.767 207.996C389.477 217.663 390.679 227.416 391.368 237.213C396.219 236.843 401.063 236.596 405.904 236.468C428.983 199.02 472.469 150.662 548.789 132.386Z" fill="#92EA7D"/>
<path d="M308.287 237.191C309.031 227.247 309.595 216.605 309.871 205.434C276.924 170.261 213.556 123.374 115.379 133.678C107.241 134.533 106.612 146.43 114.6 148.235C154.967 157.355 213.428 180.383 251.349 238.506C270.245 236.191 289.317 235.751 308.296 237.192L308.287 237.191Z" fill="#92EA7D"/>
<path d="M162.656 135.471C160.98 134.938 159.763 133.962 158.926 132.779C145.251 131.854 130.741 132.065 115.378 133.679C107.242 134.534 106.611 146.431 114.599 148.235C154.966 157.355 213.428 180.384 251.349 238.507C264.52 236.899 277.783 236.204 291.047 236.424C257.999 175.78 201.961 147.979 162.656 135.471Z" fill="#92EA7D"/>
<path d="M306.706 237.191C331.692 239.069 343.707 243.998 370.318 239.831C377.826 238.659 385.375 237.785 392.949 237.211C385.784 133.985 320.176 45.9007 280.856 1.81494C276.729 -2.8116 269.428 2.2165 272.116 7.83835C309.027 85.0584 311.381 174.8 306.706 237.191Z" fill="#92EA7D"/>
<path d="M338.009 240.787C341.463 187.536 339.878 116.611 318.916 49.5679C307.103 32.9445 294.397 17.0024 280.856 1.81494C276.729 -2.8116 269.428 2.2165 272.116 7.83835C309.027 85.0568 311.381 174.799 306.705 237.189C319.246 238.133 328.519 239.844 338.009 240.787Z" fill="#92EA7D"/>
<path d="M370.318 238.218C337.454 243.365 328.34 234.748 284.942 234.748C127.574 234.748 0 361.283 0 517.372C0 673.46 127.575 799.997 284.942 799.997C300.166 799.997 315.109 798.81 329.685 796.527C343.15 794.416 356.852 794.416 370.317 796.527C385.122 798.842 400.079 800.002 415.058 799.997C572.428 799.997 700 673.462 700 517.373C700 343.785 543.64 211.076 370.318 238.218Z" fill="url(#paint0_linear_0_433)"/>
<path d="M31.5863 517.375C31.5863 366.483 150.807 243.221 300.911 235.177C295.593 234.887 290.268 234.744 284.943 234.749C127.574 234.749 0.00207521 361.285 0.00207521 517.373C0.000544596 673.465 127.574 800 284.941 800C290.246 800 295.515 799.847 300.748 799.562C150.72 791.439 31.5863 668.211 31.5863 517.375Z" fill="white" fill-opacity="0.53"/>
<defs>
<linearGradient id="paint0_linear_0_433" x1="16.2992" y1="401.916" x2="749.263" y2="569.834" gradientUnits="userSpaceOnUse">
<stop stop-color="#FFB800"/>
<stop offset="0.199299" stop-color="#FFDE89"/>
<stop offset="0.431842" stop-color="#CC9D24"/>
<stop offset="0.681411" stop-color="#FFDE89"/>
<stop offset="0.828125" stop-color="#FFDC84"/>
<stop offset="1" stop-color="#FFB800"/>
</linearGradient>
</defs>
</svg>
