<svg width="25" height="33" viewBox="0 0 25 33" fill="none" xmlns="http://www.w3.org/2000/svg">
<path d="M10.3089 4.25048V28.8142C10.3089 29.7026 9.95596 30.5545 9.32779 31.1827C8.69962 31.8109 7.84763 32.1638 6.95926 32.1638H3.60967C2.7213 32.1638 1.86932 31.8109 1.24115 31.1827C0.612974 30.5545 0.260071 29.7026 0.260071 28.8142V4.25048C0.260071 3.36211 0.612974 2.51012 1.24115 1.88195C1.86932 1.25378 2.7213 0.900879 3.60967 0.900879H6.95926C7.84763 0.900879 8.69962 1.25378 9.32779 1.88195C9.95596 2.51012 10.3089 3.36211 10.3089 4.25048ZM21.4742 0.900879H18.1246C17.2362 0.900879 16.3842 1.25378 15.7561 1.88195C15.1279 2.51012 14.775 3.36211 14.775 4.25048V28.8142C14.775 29.7026 15.1279 30.5545 15.7561 31.1827C16.3842 31.8109 17.2362 32.1638 18.1246 32.1638H21.4742C22.3626 32.1638 23.2145 31.8109 23.8427 31.1827C24.4709 30.5545 24.8238 29.7026 24.8238 28.8142V4.25048C24.8238 3.36211 24.4709 2.51012 23.8427 1.88195C23.2145 1.25378 22.3626 0.900879 21.4742 0.900879Z" fill="white"/>
</svg>
