<svg width="46" height="45" viewBox="0 0 46 45" fill="none" xmlns="http://www.w3.org/2000/svg">
<path d="M42.8637 17.6131L39.3634 17.1681C39.0781 16.2889 38.7238 15.4335 38.3041 14.61L40.4656 11.8265C40.888 11.2921 41.0984 10.6207 41.0564 9.94081C41.0145 9.26095 40.7233 8.62044 40.2385 8.14195L37.3061 5.20957C36.8274 4.72186 36.1855 4.42801 35.5035 4.38438C34.8215 4.34074 34.1474 4.55039 33.6104 4.97312L30.8307 7.1347C30.0066 6.71459 29.1506 6.36036 28.2707 6.07532L27.8257 2.58066C27.7447 1.90363 27.4184 1.27974 26.9086 0.826908C26.3989 0.374075 25.7409 0.123678 25.059 0.123047L20.8885 0.123047C19.4791 0.123047 18.2894 1.1787 18.1218 2.57508L17.6768 6.07532C16.7966 6.35955 15.9405 6.71381 15.1168 7.1347L12.3352 4.97312C11.8005 4.55156 11.1292 4.34169 10.4496 4.38359C9.76999 4.42549 9.12959 4.71621 8.65068 5.20026L5.7183 8.13078C5.23008 8.6096 4.93591 9.25188 4.89227 9.93432C4.84863 10.6168 5.05859 11.2913 5.48184 11.8284L7.64343 14.61C7.22287 15.4332 6.86862 16.2886 6.58405 17.1681L3.08939 17.6131C1.68743 17.7806 0.631775 18.9704 0.631775 20.3798V24.5503C0.631775 25.9597 1.68743 27.1494 3.08381 27.3169L6.58405 27.7619C6.87263 28.65 7.22824 29.5065 7.64343 30.3201L5.48184 33.1035C5.0595 33.6379 4.84914 34.3094 4.89105 34.9892C4.93296 35.6691 5.2242 36.3096 5.70899 36.7881L8.64137 39.7205C9.12076 40.2072 9.76267 40.5001 10.4444 40.5434C11.1262 40.5867 11.8 40.3772 12.3371 39.9551L15.1187 37.7935C15.9323 38.2105 16.7887 38.5661 17.6768 38.8528L18.1218 42.3456C18.2894 43.7513 19.4791 44.807 20.8885 44.807H25.059C26.4684 44.807 27.6581 43.7513 27.8257 42.355L28.2707 38.8547C29.1499 38.5693 30.0052 38.2151 30.8288 37.7953L33.6122 39.9569C34.7387 40.832 36.3287 40.7296 37.2968 39.7298L40.2292 36.7974C40.7169 36.3187 41.0107 35.6768 41.0544 34.9948C41.098 34.3127 40.8884 33.6386 40.4656 33.1017L38.3041 30.3201C38.7211 29.5065 39.0767 28.65 39.3634 27.7619L42.8562 27.3169C43.5333 27.2359 44.1572 26.9097 44.61 26.3999C45.0628 25.8901 45.3132 25.2321 45.3139 24.5503V20.3798C45.3143 19.6988 45.0652 19.0413 44.6137 18.5315C44.1623 18.0218 43.5397 17.695 42.8637 17.6131ZM22.9737 31.7742C17.8407 31.7742 13.6646 27.5981 13.6646 22.465C13.6646 17.3319 17.8407 13.1559 22.9737 13.1559C28.1068 13.1559 32.2829 17.3319 32.2829 22.465C32.2829 27.5981 28.1068 31.7742 22.9737 31.7742Z" fill="white"/>
</svg>
