<svg width="13" height="13" viewBox="0 0 13 13" fill="none" xmlns="http://www.w3.org/2000/svg">
<g clip-path="url(#clip0_0_457)">
<path d="M10.2732 8.26759C10.6772 7.59153 10.9452 6.73645 10.9972 5.89038C11.0302 5.34733 10.9092 4.77728 10.6472 4.24123C10.2362 3.39915 9.53011 2.92611 8.84805 2.46907C8.339 2.12804 7.85796 1.80601 7.51793 1.34597L7.45692 1.26396C7.2559 0.993939 7.02888 0.687912 6.99288 0.430889C6.95688 0.170866 6.72086 -0.0141508 6.46283 0.000850536C6.3366 0.00938981 6.21833 0.0655886 6.13199 0.158063C6.04564 0.250538 5.99767 0.372375 5.99779 0.498895V9.40969C5.57875 9.15567 5.06271 8.99965 4.49766 8.99965C3.11954 8.99965 1.99744 9.89673 1.99744 10.9998C1.99744 12.1029 3.11954 13 4.49766 13C5.87578 13 6.99788 12.1029 6.99788 10.9998V5.17131C7.74895 5.45834 8.97806 6.1894 9.31609 7.89655C9.25308 7.98956 9.19308 8.08957 9.12307 8.16958C8.94005 8.3766 8.96006 8.69263 9.16807 8.87464C9.37409 9.05866 9.69012 9.03666 9.87314 8.82964C10.0071 8.67762 10.1262 8.49961 10.2402 8.31359C10.2522 8.29959 10.2632 8.28459 10.2732 8.26759Z" fill="#F56363"/>
</g>
<defs>
<clipPath id="clip0_0_457">
<rect width="13" height="13" fill="white"/>
</clipPath>
</defs>
</svg>
