<svg width="192" height="222" viewBox="0 0 192 222" fill="none" xmlns="http://www.w3.org/2000/svg">
<path d="M160.353 37.0958C132.766 34.166 115.199 47.894 106.359 57.7188C106.827 60.4012 107.157 63.1077 107.346 65.8265C112.583 65.4196 117.845 65.5398 123.059 66.1855C133.46 50.0563 149.495 43.666 160.567 41.1352C162.758 40.6344 162.585 37.3326 160.353 37.0958Z" fill="white"/>
<path d="M150.525 36.7371C128.533 37.521 114.1 49.1157 106.359 57.719C106.828 60.4015 107.158 63.1079 107.347 65.8267C108.677 65.724 110.006 65.6555 111.334 65.6199C117.664 55.228 129.592 41.8088 150.525 36.7371Z" fill="white"/>
<path d="M84.5588 65.8204C84.7628 63.061 84.9177 60.1078 84.9933 57.008C75.9565 47.2475 58.5753 34.2362 31.6469 37.0958C29.4147 37.3329 29.2421 40.6343 31.4332 41.1351C42.5053 43.666 58.5405 50.0563 68.9417 66.1855C74.1246 65.543 79.3556 65.4208 84.5613 65.8208L84.5588 65.8204Z" fill="white"/>
<path d="M44.6143 37.5933C44.1546 37.4454 43.8209 37.1744 43.5912 36.8462C39.8405 36.5895 35.8605 36.648 31.6468 37.0959C29.415 37.3331 29.242 40.6345 31.4331 41.1353C42.5051 43.6662 58.5403 50.0564 68.9415 66.1856C72.5543 65.7396 76.1921 65.5465 79.8301 65.6076C70.7657 48.7791 55.395 41.0642 44.6143 37.5933Z" fill="white"/>
<path d="M84.1251 65.8204C90.9784 66.3415 94.274 67.7095 101.573 66.5531C103.632 66.2279 105.703 65.9853 107.78 65.826C105.815 37.1808 87.8196 12.7374 77.0347 0.503645C75.9029 -0.78022 73.9003 0.615079 74.6375 2.17514C84.7616 23.6037 85.4073 48.507 84.1251 65.8204Z" fill="white"/>
<path d="M92.711 66.8185C93.6585 52.0413 93.2236 32.3596 87.4741 13.7551C84.2341 9.14211 80.7489 4.71818 77.0347 0.503645C75.9029 -0.78022 73.9003 0.615079 74.6375 2.17514C84.7616 23.6033 85.4073 48.5066 84.1247 65.8199C87.5648 66.0818 90.1081 66.5566 92.711 66.8185Z" fill="white"/>
<path d="M101.573 66.1056C92.5589 67.5339 90.0588 65.1426 78.1555 65.1426C34.9916 65.1426 0 100.256 0 143.571C0 186.885 34.992 221.999 78.1555 221.999C82.3311 221.999 86.4299 221.67 90.4279 221.036C94.1211 220.45 97.8793 220.45 101.573 221.036C105.634 221.679 109.736 222.001 113.844 221.999C157.009 221.999 192 186.886 192 143.571C192 95.4004 149.113 58.5737 101.573 66.1056Z" fill="white"/>
<path d="M8.66407 143.571C8.66407 101.699 41.3647 67.4938 82.5361 65.2617C81.0774 65.1811 79.6169 65.1415 78.1561 65.1429C34.9922 65.1429 0.000976566 100.256 0.000976566 143.571C0.000556741 186.886 34.9922 222 78.1557 222C79.6108 222 81.0558 221.957 82.4912 221.879C41.3408 219.624 8.66407 185.429 8.66407 143.571Z" fill="white"/>
</svg>
