<svg width="1106" height="1024" viewBox="0 0 1106 1024" fill="none" xmlns="http://www.w3.org/2000/svg">
<path d="M647.8 835.203C723.67 754.068 723.817 665.83 714.883 614.585C705.462 609.789 696.303 604.494 687.446 598.721C676.02 616.381 662.902 632.886 648.279 648.005C672.907 719.013 653.806 785.154 634.805 826.412C631.045 834.576 641.662 841.769 647.8 835.203Z" fill="#92EA7D"/>
<path d="M672.715 804.692C723.561 732.696 722.706 659.459 714.882 614.586C705.46 609.791 696.302 604.496 687.445 598.723C684.54 603.208 681.533 607.608 678.427 611.927C695.193 656.493 707.753 726.016 672.715 804.692Z" fill="#92EA7D"/>
<path d="M742.66 526.039C750.69 533.162 759.436 540.582 768.828 548.093C820.866 542.155 903.157 517.221 959.549 424.609C964.224 416.931 954.444 408.638 947.59 414.454C912.954 443.84 854.375 480.008 779.36 475.362C768.791 493.403 756.498 510.377 742.653 526.046L742.66 526.039Z" fill="#92EA7D"/>
<path d="M926.603 464.811C928.173 463.691 929.819 463.262 931.389 463.299C941.267 451.936 950.726 439.102 959.549 424.609C964.222 416.933 954.444 408.638 947.59 414.454C912.954 443.84 854.375 480.008 779.36 475.362C771.987 487.933 763.772 499.992 754.771 511.454C828.708 522.005 889.769 491.063 926.603 464.811Z" fill="#92EA7D"/>
<path d="M743.711 524.655C725.502 545.296 713.293 552.601 699.186 578.599C695.203 585.93 690.937 593.105 686.397 600.106C779.639 661.018 898.729 660.936 962.641 655.222C969.348 654.622 969.889 644.961 963.285 643.654C872.572 625.696 794.084 569.35 743.711 524.655Z" fill="#92EA7D"/>
<path d="M719.832 549.705C763.182 587.384 825.029 632.156 896.423 657.447C918.52 657.929 940.626 657.186 962.641 655.222C969.348 654.622 969.889 644.961 963.285 643.654C872.573 625.697 794.086 569.351 743.714 524.655C734.572 535.015 726.945 542.015 719.832 549.705Z" fill="#92EA7D"/>
<path d="M700.568 579.649C717.99 547.543 731.432 545.175 760.264 507.202C864.815 369.501 841.109 175.521 707.315 73.9366C573.522 -27.648 380.302 1.63037 275.752 139.329C265.638 152.65 256.728 166.499 249.001 180.739C241.865 193.894 232.762 205.884 222.006 216.292C210.186 227.741 199.254 240.073 189.307 253.183C84.7551 390.885 108.462 584.863 242.255 686.448C391.049 799.422 608.683 748.973 700.568 579.649Z" fill="white" fill-opacity="0.2"/>
<path d="M686.33 101.576C815.669 199.779 842.118 384.32 749.288 520.899C753.07 516.434 756.73 511.867 760.264 507.204C864.815 369.504 841.108 175.525 707.315 73.9404C573.52 -27.6475 380.302 1.63051 275.752 139.329C272.228 143.971 268.859 148.681 265.626 153.445C372.263 27.4551 557.038 3.40931 686.33 101.576Z" fill="white" fill-opacity="0.5"/>
</svg>
